<svg width="18" height="18" viewBox="0 0 18 18" fill="none" xmlns="http://www.w3.org/2000/svg">
<path fill-rule="evenodd" clip-rule="evenodd" d="M11.1483 11.8634V10.4315C11.4705 10.2718 12.3919 9.17504 12.4885 8.31807C12.7419 8.29873 13.14 8.06605 13.2575 7.1475C13.3205 6.65422 13.0699 6.37716 12.918 6.28981C12.918 6.28981 13.2961 5.57173 13.2961 4.70472C13.2961 2.96642 12.6138 1.483 11.1483 1.483C11.1483 1.483 10.6392 0.409088 9.00044 0.409088C5.96343 0.409088 4.70482 2.35716 4.70482 4.70472C4.70482 5.49512 5.08283 6.28981 5.08283 6.28981C4.93105 6.37716 4.68047 6.65494 4.74347 7.1475C4.86088 8.06605 5.25895 8.29873 5.51239 8.31807C5.60905 9.17504 6.53046 10.2718 6.85263 10.4315V11.8634C6.13669 14.0112 0.40918 12.5794 0.40918 17.5909H17.5917C17.5917 12.5794 11.8642 14.0112 11.1483 11.8634Z" fill="white"/>
</svg>
