<?xml version="1.0" standalone="no"?>
<!DOCTYPE svg PUBLIC "-//W3C//DTD SVG 20010904//EN"
 "http://www.w3.org/TR/2001/REC-SVG-20010904/DTD/svg10.dtd">
<svg version="1.0" xmlns="http://www.w3.org/2000/svg"
 width="80.000000pt" height="80.000000pt" viewBox="0 0 80.000000 80.000000"
 preserveAspectRatio="xMidYMid meet">

<g transform="translate(0.000000,80.000000) scale(0.100000,-0.100000)"
fill="current" stroke="none">
<path d="M317 696 c-49 -18 -103 -55 -151 -105 l-38 -39 21 -21 c11 -11 23
-31 25 -43 12 -60 14 -116 5 -125 -13 -13 -3 -70 15 -80 7 -5 18 -27 24 -51
18 -59 62 -106 127 -132 l55 -22 55 22 c65 26 109 73 127 132 6 24 17 46 24
51 17 10 28 65 16 80 -7 8 -7 29 -2 57 23 117 3 180 -71 220 -25 14 -58 34
-73 44 -35 24 -110 30 -159 12z m126 -15 c13 -5 32 -18 42 -28 10 -10 32 -22
49 -28 44 -15 76 -68 75 -124 -2 -52 -16 -121 -18 -85 -2 43 -25 86 -54 104
-29 18 -30 18 -57 -1 -30 -23 -87 -38 -138 -39 -46 0 -101 -28 -115 -57 -16
-36 -24 -28 -29 32 -3 34 -12 62 -23 75 -18 20 -18 21 21 61 73 75 182 114
247 90z m102 -191 c12 -14 20 -41 23 -79 4 -51 7 -58 23 -54 20 6 22 1 13 -34
-4 -13 -13 -23 -20 -23 -8 0 -14 -10 -14 -25 0 -64 -53 -131 -127 -160 -40
-16 -46 -16 -85 0 -75 29 -128 96 -128 160 0 16 -6 25 -15 25 -8 0 -15 3 -15
8 0 4 -3 18 -7 31 -5 21 -3 23 15 19 17 -5 22 -2 22 14 0 53 34 77 131 89 38
5 86 17 106 28 48 25 56 26 78 1z"/>
<path d="M500 600 c0 -5 5 -10 10 -10 6 0 10 5 10 10 0 6 -4 10 -10 10 -5 0
-10 -4 -10 -10z"/>
<path d="M500 560 c0 -5 5 -10 10 -10 6 0 10 5 10 10 0 6 -4 10 -10 10 -5 0
-10 -4 -10 -10z"/>
<path d="M298 388 c-16 -5 -28 -14 -28 -20 0 -6 8 -7 18 -3 9 4 32 9 50 12 17
3 32 10 32 14 0 12 -38 10 -72 -3z"/>
<path d="M430 391 c0 -4 15 -11 33 -14 17 -3 40 -8 50 -12 9 -4 17 -3 17 3 0
11 -53 32 -81 32 -11 0 -19 -4 -19 -9z"/>
<path d="M290 318 c0 -11 39 -20 60 -13 33 10 23 20 -20 20 -22 0 -40 -3 -40
-7z"/>
<path d="M430 318 c0 -11 39 -20 60 -13 33 10 23 20 -20 20 -22 0 -40 -3 -40
-7z"/>
<path d="M360 220 c-32 -32 -24 -40 40 -40 33 0 60 4 60 10 0 17 -39 50 -60
50 -11 0 -29 -9 -40 -20z m65 -10 c4 -6 -7 -10 -25 -10 -18 0 -29 4 -25 10 3
6 15 10 25 10 10 0 22 -4 25 -10z"/>
</g>
</svg>
