<svg width="128" height="37" viewBox="0 0 128 37" fill="none" xmlns="http://www.w3.org/2000/svg">
<path fill-rule="evenodd" clip-rule="evenodd" d="M17.465 0.732811C17.0879 1.13125 16.287 2.10888 15.6851 2.90549C11.5305 8.40492 8.90942 11.0015 2.7979 15.6724C1.41696 16.7278 0.223357 17.7548 0.145711 17.9548C-0.270062 19.0246 -0.0714305 19.2439 4.519 22.783C8.90516 26.1644 10.5594 27.7603 13.5902 31.5328C17.837 36.8192 18.0061 37 18.7074 37C19.455 37 20.0547 36.4034 22.4559 33.2721C25.9733 28.6856 28.5207 26.1245 32.9338 22.7382C37.6878 19.0903 37.8366 18.9212 37.2481 17.8357C37.124 17.6067 35.9303 16.5894 34.5959 15.575C28.7155 11.1058 26.3689 8.84441 22.7274 4.13754C19.2546 -0.35131 18.7812 -0.657489 17.465 0.732811ZM20.7023 5.83276C25.236 9.21166 32.7338 17.1579 32.7338 18.5841C32.7338 19.2317 29.3085 23.4023 26.394 26.3037C23.1601 29.5231 19.6013 32.3203 18.7393 32.3203C17.368 32.3203 10.5269 26.2156 6.73803 21.6109C4.85486 19.3221 4.54315 18.6293 5.0079 17.7669C6.66174 14.6989 17.1734 4.68821 18.7412 4.68821C18.9753 4.68821 19.8577 5.20322 20.7023 5.83276ZM42.4396 18.95V32.9888H46.5025H50.5654V18.95V4.91103H46.5025H42.4396V18.95ZM54.4573 18.8942L54.5155 32.8774H65.35H76.1845L76.2479 30.1477C76.2967 28.0467 76.2445 27.4168 76.0221 27.413C75.8631 27.4103 72.7874 27.3853 69.1872 27.3572L62.6414 27.3064L62.5782 24.4652L62.515 21.6241H68.8419H75.1687V18.8421V16.0602L68.905 16.0009L62.6414 15.9416L62.578 13.2152L62.5147 10.4885L69.3495 10.4297L76.1845 10.3706L76.2479 7.64086L76.3114 4.91103H65.3552H54.3993L54.4573 18.8942ZM80.3606 18.95V32.9888H91.1817C97.1329 32.9888 102.035 32.9136 102.075 32.8217C102.116 32.7299 102.097 31.4715 102.033 30.0258L101.916 27.3969L95.2575 27.3517L88.5989 27.3064L88.5358 24.4688L88.4727 21.6311L94.7433 21.5719L101.013 21.5126V18.8386V16.1645L94.7496 16.1052L88.4861 16.0459V13.264V10.482H95.2196C98.9239 10.482 101.997 10.4406 102.048 10.39C102.1 10.3395 102.111 9.08592 102.072 7.6045L102.003 4.91103H91.1817H80.3606V18.95ZM106.373 18.8942L106.43 32.8774L117.215 32.9354L128 32.9931L127.937 30.1891L127.874 27.3851L121.215 27.3459L114.557 27.3064L114.494 24.4652L114.43 21.6241H120.764H127.098L127.035 18.8942L126.971 16.1645L120.707 16.1052L114.444 16.0459V13.264V10.482H121.215H127.987V7.69652V4.91103H117.15H106.314L106.373 18.8942ZM16.2216 7.05212C13.6432 9.06723 9.59042 13.0429 7.4355 15.6704C5.15304 18.4536 5.13679 18.6625 7.02289 20.9555C10.3748 25.0306 15.7787 30.1434 17.9226 31.2679C18.9126 31.7873 19.2853 31.6344 21.6742 29.7305C25.8868 26.3734 31.8309 19.8244 31.8309 18.5401C31.8309 16.6781 20.6193 5.57957 18.7383 5.57957C18.2989 5.57957 17.5296 6.02949 16.2216 7.05212ZM19.7394 12.021C20.1825 13.2965 20.545 14.3677 20.545 14.4018C20.545 14.4356 20.2658 14.4954 19.9242 14.5341C19.3936 14.5943 19.3073 14.7017 19.3301 15.2731C19.3446 15.6408 19.3906 16.8942 19.4322 18.0586L19.5078 20.1756H18.7284H17.9492L18.0199 17.3343L18.0905 14.4932H17.512C17.1937 14.4932 16.9335 14.418 16.9335 14.3265C16.9335 13.7716 18.5972 9.36231 18.749 9.51537C18.8505 9.61806 19.2961 10.7456 19.7394 12.021ZM15.4664 16.3804C15.8649 16.7029 16.0103 16.9317 15.8198 16.9363C15.2205 16.9513 13.5423 17.8752 13.2987 18.3243C13.1044 18.6828 13.1557 18.8722 13.5624 19.2996C14.5223 20.3084 15.8545 20.6213 19.1907 20.6213C22.125 20.6213 22.288 20.5965 23.5922 19.9527C25.1995 19.1592 25.4099 18.6203 24.4539 17.7452C24.0145 17.3428 23.5725 17.1673 23.0001 17.1673C22.3419 17.1673 22.1516 17.0692 22.0474 16.6757C21.9758 16.4051 21.9517 16.15 21.9936 16.1085C22.0356 16.0669 22.5509 16.1524 23.1387 16.2986C24.2082 16.5644 26.1879 18.1426 26.1879 18.7293C26.1879 19.2415 24.7783 20.2859 23.6346 20.6213C22.9986 20.8077 21.586 21.0776 20.4958 21.2209C18.3367 21.5045 15.6205 21.2744 13.3812 20.6179C12.1189 20.248 10.6134 19.0376 10.6134 18.3928C10.6134 17.7787 12.1095 16.5382 13.2784 16.1829C14.6943 15.7529 14.6906 15.7526 15.4664 16.3804ZM19.6819 22.9611C19.7658 23.5126 19.8419 24.7411 19.8511 25.6909L19.8678 27.4179H18.7074H17.547L17.6792 24.8536C17.7522 23.4433 17.8777 22.184 17.958 22.0554C18.0386 21.9268 18.4251 21.8524 18.8169 21.8901C19.4735 21.9529 19.5412 22.0368 19.6819 22.9611ZM24.1957 33.2817C23.5391 33.9718 23.577 34.6399 24.3048 35.205C25.2537 35.9419 26.47 35.373 26.47 34.1922C26.47 33.5237 25.7282 32.766 25.0738 32.766C24.8607 32.766 24.4657 32.9982 24.1957 33.2817ZM24.495 34.103C24.5718 34.2256 24.5269 34.3259 24.3955 34.3259C24.2641 34.3259 24.1564 34.2256 24.1564 34.103C24.1564 33.9805 24.2012 33.8802 24.256 33.8802C24.3109 33.8802 24.4183 33.9805 24.495 34.103ZM25.9622 34.3259C25.9622 34.4485 25.8606 34.5487 25.7365 34.5487C25.6124 34.5487 25.5108 34.4485 25.5108 34.3259C25.5108 34.2033 25.6124 34.103 25.7365 34.103C25.8606 34.103 25.9622 34.2033 25.9622 34.3259Z" fill="white"/>
</svg>
