<svg  viewBox="0 0 3148 554" fill="none" xmlns="http://www.w3.org/2000/svg">
<path fill-rule="evenodd" clip-rule="evenodd" d="M2419.03 2.33554C2417.39 4.31621 2415.63 11.5777 2415.13 18.47C2414.57 26.0321 2412.51 31.8367 2409.92 33.1075C2407.56 34.2667 2402.23 36.7941 2398.07 38.7233C2393.92 40.6524 2389.07 45.4095 2387.3 49.2964L2384.08 56.3604L2392.43 50.4127C2402.55 43.2084 2405.41 42.8993 2402.96 49.2792C2401.72 52.525 2403.72 56.1858 2409.1 60.5135C2415.55 65.7085 2416.39 67.6405 2413.46 70.623C2410.65 73.4852 2407.92 73.5883 2401.29 71.0838C2393.74 68.2359 2392.21 68.5879 2388.37 74.0491C2384.88 79.0036 2383.51 79.453 2381.54 76.2988C2378.1 70.7804 2372.71 74.9307 2372.71 83.1052C2372.71 86.8548 2371.35 90.7675 2369.68 91.7979C2367.75 92.9943 2367.35 99.2912 2368.58 109.163C2369.89 119.625 2369.4 125.996 2367.08 128.798C2365.18 131.079 2364.46 134.279 2365.47 135.908C2366.47 137.539 2365.98 141.137 2364.37 143.905C2361.59 148.682 2361.43 148.685 2361.35 143.928C2361.25 137.797 2356.76 137.328 2354.51 143.212C2353.6 145.574 2351.57 147.506 2350 147.506C2348.42 147.506 2347.96 145.362 2348.96 142.743C2350.19 139.54 2349.69 138.659 2347.44 140.05C2345.6 141.189 2344.09 143.831 2344.09 145.926C2344.09 148.018 2339.59 150.577 2334.08 151.61C2328.57 152.643 2324.06 155.102 2324.06 157.074C2324.06 159.699 2319.08 160.34 2305.46 159.473C2287 158.296 2286.85 158.345 2286.85 165.778V173.266L2206 173.283C2114.64 173.303 2076.02 175.373 2080.65 179.998C2084.33 183.679 2084.63 188.525 2081.04 186.306C2079.61 185.422 2076.39 185.482 2073.89 186.444C2066.93 189.111 2067.33 223.799 2074.34 225.908C2077.1 226.738 2113.09 227.322 2154.32 227.208L2229.3 226.999L2230.17 218.243C2230.65 213.426 2232.85 208.889 2235.06 208.165C2238.18 207.138 2238.71 209.067 2237.45 216.815L2235.84 226.787L2276.23 226.501L2316.63 226.217L2315.82 198.311L2315.01 170.404L2323.11 170.003C2327.57 169.783 2336 169.325 2341.85 168.987L2352.49 168.369L2353.3 197.294C2354.34 234.421 2359.36 234.177 2361.27 196.905C2362.57 171.357 2363.19 168.973 2368.42 168.973C2373.66 168.973 2374.27 171.357 2375.58 196.905C2377.52 234.844 2382.73 233.253 2382.73 194.716V164.673L2390.19 164.676C2397.61 164.679 2397.67 164.84 2399.66 193.848C2400.77 209.891 2402.33 224.079 2403.13 225.379C2407.44 232.351 2409.92 221.211 2409.92 194.899C2409.92 165.724 2410.01 165.329 2417.01 163.992C2420.91 163.245 2424.77 163.311 2425.59 164.135C2426.42 164.96 2427.09 173.612 2427.09 183.361C2427.09 208.566 2430.16 228.055 2433.94 226.807C2435.86 226.172 2437.67 214.03 2438.54 195.935C2439.96 166.411 2440.04 166.11 2447.13 166.11C2454.14 166.11 2454.3 166.588 2455 190.439C2455.88 220.15 2457.45 227.649 2462.83 227.649C2466.13 227.649 2467.13 221.452 2467.78 196.914C2468.48 170.541 2469.29 166.045 2473.5 165.237C2477.86 164.404 2478.5 167.796 2479.23 195.222C2479.93 221.775 2480.74 226.283 2484.95 227.09C2489.31 227.923 2489.95 224.529 2490.67 197.071C2491.3 173.383 2492.4 166.11 2495.36 166.11C2498.33 166.11 2499.32 173.046 2499.65 196.164C2500.08 226.2 2500.08 226.217 2507.23 226.217C2517.9 226.217 2521.59 209.153 2514.96 190.491C2508.26 171.634 2508.65 167.541 2517.15 167.541C2524.13 167.541 2524.21 167.825 2525.02 196.879L2525.83 226.217L2648.9 226.561C2736.91 226.804 2772.57 225.991 2774.08 223.699C2777.51 218.458 2776.56 213.337 2772.14 213.337C2766.04 213.337 2763.82 207.971 2767.9 203.059C2770.76 199.607 2771.94 199.49 2773.82 202.469C2775.27 204.751 2776.19 201.496 2776.22 194.017C2776.25 187.325 2774.98 181.692 2773.4 181.495C2771.83 181.297 2769.36 180.977 2767.92 180.779C2763.77 180.215 2760.63 176.128 2764.34 176.128C2766.18 176.128 2767.68 174.84 2767.68 173.266C2767.68 171.408 2730.54 170.404 2661.97 170.404H2556.27L2555.36 162.962L2554.46 155.52L2475.21 155.091C2431.62 154.853 2396.84 153.774 2397.93 152.689C2400.52 150.102 2512.46 149.438 2520.83 151.957C2526.54 153.68 2527.27 152.895 2527.27 144.978C2527.27 135.61 2522.59 133.295 2516.32 139.563C2513.55 142.331 2511.63 142.331 2507.2 139.563C2504.11 137.634 2498.67 136.037 2495.11 136.014C2491.54 135.988 2486.74 134.774 2484.43 133.315C2481.71 131.595 2478.75 131.864 2476.01 134.073C2472.63 136.807 2472.26 136.709 2474.13 133.59C2475.57 131.202 2474.95 128.624 2472.54 126.932C2470.28 125.352 2469.82 123.655 2471.46 122.962C2475.32 121.325 2474.41 94.1163 2470.32 89.1932C2468.53 87.0294 2467.77 83.4086 2468.65 81.1417C2470.87 75.3485 2461.93 68.4334 2449.3 66.1693C2440.74 64.6352 2438.22 62.6946 2436.74 56.5035C2435.72 52.2445 2433.6 47.1182 2432.02 45.1118C2427.46 39.3329 2432.23 37.3208 2438.04 42.573C2440.92 45.1891 2445.12 47.2871 2447.35 47.2356C2452.37 47.1239 2436.95 33.0159 2431.82 33.0159C2429.87 33.0159 2426.91 27.904 2425.24 21.6586C2423.58 15.4131 2423.31 10.9795 2424.66 11.8096C2425.99 12.6396 2427.09 10.742 2427.09 7.59348C2427.09 0.352003 2422.93 -2.36427 2419.03 2.33554ZM2432.82 61.6384C2432.82 63.2126 2430.81 64.5006 2428.36 64.5006C2425.9 64.5006 2424.69 63.2126 2425.66 61.6384C2426.64 60.0642 2428.64 58.7761 2430.12 58.7761C2431.61 58.7761 2432.82 60.0642 2432.82 61.6384ZM221.454 88.1142C216.672 93.2319 206.517 105.789 198.884 116.021C146.205 186.658 112.97 220.009 35.4769 280.005C17.9668 293.56 2.83214 306.752 1.84759 309.32C-3.42434 323.062 -0.905724 325.878 57.3002 371.336C112.916 414.768 133.892 435.267 172.321 483.722C226.171 551.623 228.315 553.945 237.207 553.945C246.686 553.945 254.291 546.282 284.737 506.062C329.337 447.151 361.638 414.256 417.595 370.761C477.876 323.906 479.762 321.733 472.3 307.791C470.726 304.849 455.591 291.783 438.671 278.754C364.108 221.349 334.354 192.303 288.18 131.846C244.145 74.1893 238.143 70.2566 221.454 88.1142ZM2389.89 108.697C2389.89 112.541 2388.6 116.479 2387.02 117.452C2385.36 118.485 2384.16 115.575 2384.16 110.465C2384.16 105.651 2385.45 101.71 2387.02 101.71C2388.6 101.71 2389.89 104.853 2389.89 108.697ZM2377.53 113.697C2376.62 115.978 2375.94 115.3 2375.8 111.965C2375.68 108.948 2376.35 107.26 2377.3 108.21C2378.26 109.16 2378.36 111.63 2377.53 113.697ZM2458.87 114.006C2455.2 117.681 2451.48 114.842 2454.19 110.44C2455.25 108.737 2457.42 108.153 2459.02 109.143C2460.98 110.351 2460.93 111.951 2458.87 114.006ZM2404.2 120.146C2404.2 120.841 2402.91 122.203 2401.33 123.177C2399.76 124.15 2398.47 123.58 2398.47 121.914C2398.47 120.249 2399.76 118.883 2401.33 118.883C2402.91 118.883 2404.2 119.45 2404.2 120.146ZM262.502 153.62C319.989 197.02 415.059 299.085 415.059 317.403C415.059 325.721 371.627 379.29 334.672 416.557C293.667 457.908 248.541 493.837 237.611 493.837C220.223 493.837 133.48 415.426 85.4372 356.281C61.5589 326.883 57.6064 317.984 63.4994 306.907C84.4698 267.5 217.756 138.919 237.636 138.919C240.604 138.919 251.792 145.534 262.502 153.62ZM2334.08 141.781C2335.05 143.355 2336.41 144.644 2337.11 144.644C2337.8 144.644 2338.37 143.355 2338.37 141.781C2338.37 140.207 2337 138.919 2335.34 138.919C2333.67 138.919 2333.1 140.207 2334.08 141.781ZM2488.63 141.781C2490.87 145.405 2487.08 145.405 2481.47 141.781C2477.77 139.391 2477.85 139.002 2482.02 138.962C2484.68 138.939 2487.65 140.207 2488.63 141.781ZM538.128 322.103V502.424H589.645H641.162V322.103V141.781H589.645H538.128V322.103ZM690.51 321.387L691.248 500.993H828.628H966.007L966.811 465.931C967.43 438.945 966.768 430.854 963.949 430.805C961.932 430.771 922.933 430.45 877.283 430.089L794.283 429.437L793.482 392.943L792.68 356.45H872.904H953.128V320.717V284.985L873.705 284.224L794.283 283.462L793.479 248.443L792.677 213.42L879.341 212.665L966.007 211.906L966.811 176.844L967.616 141.781H828.694H689.775L690.51 321.387ZM1018.96 322.103V502.424H1156.17C1231.63 502.424 1293.79 501.457 1294.3 500.277C1294.82 499.098 1294.57 482.935 1293.76 464.365L1292.28 430.599L1207.85 430.018L1123.42 429.437L1122.62 392.989L1121.82 356.541L1201.33 355.78L1280.83 355.019V320.672V286.325L1201.41 285.563L1121.99 284.802V249.07V213.337H1207.37C1254.34 213.337 1293.3 212.805 1293.95 212.155C1294.61 211.506 1294.75 195.405 1294.26 176.377L1293.38 141.781H1156.17H1018.96V322.103ZM1348.79 321.387L1349.52 500.993L1486.27 501.737L1623.02 502.479L1622.22 466.463L1621.42 430.447L1536.99 429.944L1452.56 429.437L1451.76 392.943L1450.96 356.45H1531.27H1611.58L1610.78 321.387L1609.97 286.325L1530.55 285.563L1451.13 284.802V249.07V213.337H1536.99H1622.85V177.559V141.781H1485.45H1348.05L1348.79 321.387ZM205.687 169.282C172.994 195.165 121.605 246.23 94.281 279.979C65.3397 315.728 65.1337 318.41 89.0491 347.863C131.551 400.205 200.072 465.876 227.256 480.319C239.809 486.991 244.534 485.027 274.826 460.572C328.241 417.453 403.611 333.334 403.611 316.839C403.611 292.922 261.449 150.368 237.599 150.368C232.027 150.368 222.273 156.147 205.687 169.282ZM2385.38 152.892C2387.01 155.523 2333.35 160.612 2330.8 158.07C2330.01 157.272 2339.43 155.763 2351.75 154.713C2364.07 153.665 2375.43 152.36 2377.01 151.813C2382.01 150.076 2383.78 150.302 2385.38 152.892ZM2332.65 200.457C2332.65 215.413 2333.8 227.649 2335.2 227.649C2339.64 227.649 2341.23 219.279 2341.23 195.929C2341.23 177.691 2340.39 173.266 2336.94 173.266C2333.42 173.266 2332.65 178.195 2332.65 200.457ZM2656.06 182.397C2656.06 186.16 2649.55 183.805 2648.13 179.526C2647.43 177.433 2648.74 176.795 2651.53 177.863C2654.02 178.822 2656.06 180.859 2656.06 182.397ZM2704.71 178.512C2704.71 182.545 2701.49 184.397 2697.28 182.78C2691.31 180.487 2692.43 176.128 2698.99 176.128C2702.14 176.128 2704.71 177.202 2704.71 178.512ZM2753.37 178.99C2753.37 180.565 2752.08 181.853 2750.51 181.853C2748.93 181.853 2747.65 180.565 2747.65 178.99C2747.65 177.416 2748.93 176.128 2750.51 176.128C2752.08 176.128 2753.37 177.416 2753.37 178.99ZM2564.47 180.253C2564.47 180.948 2563.18 182.311 2561.61 183.284C2560.04 184.257 2558.75 183.687 2558.75 182.022C2558.75 180.356 2560.04 178.99 2561.61 178.99C2563.18 178.99 2564.47 179.557 2564.47 180.253ZM2593.09 181.853C2593.09 183.427 2591.81 184.715 2590.23 184.715C2588.66 184.715 2587.37 183.427 2587.37 181.853C2587.37 180.278 2588.66 178.99 2590.23 178.99C2591.81 178.99 2593.09 180.278 2593.09 181.853ZM2100.82 184.715C2095.27 188.301 2092.23 188.301 2092.23 184.715C2092.23 183.141 2095.13 181.873 2098.67 181.896C2103.88 181.933 2104.29 182.471 2100.82 184.715ZM2125.15 184.715C2124.17 186.289 2122.17 187.577 2120.68 187.577C2119.2 187.577 2117.99 186.289 2117.99 184.715C2117.99 183.141 2120 181.853 2122.45 181.853C2124.9 181.853 2126.12 183.141 2125.15 184.715ZM2135.16 184.715C2135.16 186.289 2134.6 187.577 2133.9 187.577C2133.2 187.577 2131.84 186.289 2130.87 184.715C2129.9 183.141 2130.47 181.853 2132.13 181.853C2133.8 181.853 2135.16 183.141 2135.16 184.715ZM2150.9 184.715C2149.93 186.289 2147.92 187.577 2146.44 187.577C2144.96 187.577 2143.75 186.289 2143.75 184.715C2143.75 183.141 2145.76 181.853 2148.21 181.853C2150.66 181.853 2151.88 183.141 2150.9 184.715ZM2178.09 184.715C2172.54 188.301 2169.51 188.301 2169.51 184.715C2169.51 183.141 2172.41 181.873 2175.95 181.896C2181.15 181.933 2181.57 182.471 2178.09 184.715ZM2216.73 184.715C2215.76 186.289 2213.75 187.577 2212.27 187.577C2210.79 187.577 2209.58 186.289 2209.58 184.715C2209.58 183.141 2211.59 181.853 2214.04 181.853C2216.49 181.853 2217.7 183.141 2216.73 184.715ZM2238.2 184.715C2232.65 188.301 2229.61 188.301 2229.61 184.715C2229.61 183.141 2232.51 181.873 2236.05 181.896C2241.26 181.933 2241.67 182.471 2238.2 184.715ZM2263.95 183.999C2263.95 185.179 2260.74 186.332 2256.82 186.558C2252.89 186.784 2250.4 185.817 2251.27 184.412C2253.17 181.32 2263.96 180.968 2263.95 183.999ZM2283.99 183.999C2283.99 185.179 2280.78 186.332 2276.85 186.558C2272.93 186.784 2270.43 185.817 2271.3 184.412C2273.21 181.32 2283.99 180.968 2283.99 183.999ZM250.292 233.104C255.911 249.488 260.507 263.246 260.507 263.684C260.507 264.119 256.967 264.886 252.636 265.384C245.908 266.157 244.814 267.537 245.103 274.876C245.287 279.598 245.87 295.698 246.397 310.654L247.356 337.845H237.473H227.593L228.489 301.351L229.385 264.858H222.049C218.014 264.858 214.714 263.893 214.714 262.717C214.714 255.59 235.81 198.955 237.734 200.921C239.022 202.24 244.671 216.723 250.292 233.104ZM2725.84 208.071C2728.04 219.059 2727.61 219.646 2720.91 214.746C2717.32 212.124 2716.25 209.001 2717.53 204.96C2720.26 196.364 2723.76 197.675 2725.84 208.071ZM2653.94 219.8C2652.32 222.986 2644.61 214.465 2644.61 209.488C2644.61 201.891 2651.7 202.469 2653.4 210.203C2654.3 214.288 2654.54 218.607 2653.94 219.8ZM2675.6 211.723C2676.26 217.336 2675.41 219.317 2672.74 218.438C2670.65 217.751 2668.52 213.606 2668 209.227C2667.34 203.614 2668.19 201.634 2670.86 202.512C2672.95 203.199 2675.08 207.344 2675.6 211.723ZM2630.3 213.675C2630.3 216.824 2629.01 218.604 2627.44 217.631C2625.86 216.658 2624.58 213.286 2624.58 210.137C2624.58 206.989 2625.86 205.209 2627.44 206.182C2629.01 207.155 2630.3 210.527 2630.3 213.675ZM2698.99 210.475C2698.99 213.655 2697.08 216.2 2694.7 216.2C2690.34 216.2 2688.83 210.146 2692.31 206.66C2695.94 203.03 2698.99 204.774 2698.99 210.475ZM2749.34 212.602C2747.35 214.585 2741.92 210.552 2741.92 207.095C2741.92 205.194 2743.56 205.412 2746.28 207.67C2748.68 209.662 2750.06 211.88 2749.34 212.602ZM2080.65 213.584C2078.89 216.867 2076.89 218.982 2076.19 218.286C2074.19 216.283 2078.25 207.613 2081.19 207.613C2082.65 207.613 2082.41 210.298 2080.65 213.584ZM2260.58 213.83C2259.23 222.992 2252.51 223.973 2252.51 215.006C2252.51 210.198 2254.08 207.613 2257 207.613C2259.98 207.613 2261.19 209.699 2260.58 213.83ZM2280.61 213.83C2279.26 222.992 2272.54 223.973 2272.54 215.006C2272.54 210.198 2274.11 207.613 2277.04 207.613C2280.02 207.613 2281.22 209.699 2280.61 213.83ZM2588.57 216.572C2586.31 220.224 2581.65 216.729 2581.65 211.388C2581.65 207.747 2582.44 207.573 2585.91 210.449C2588.25 212.396 2589.45 215.149 2588.57 216.572ZM2610.27 213.506C2610.27 216.746 2608.98 218.604 2607.4 217.631C2605.83 216.658 2604.54 214.007 2604.54 211.737C2604.54 209.468 2605.83 207.613 2607.4 207.613C2608.98 207.613 2610.27 210.266 2610.27 213.506ZM2106.54 213.169C2106.54 216.546 2100.96 220.158 2098.91 218.109C2096.86 216.057 2100.47 210.475 2103.85 210.475C2105.33 210.475 2106.54 211.686 2106.54 213.169ZM2129.44 214.769C2129.44 217.13 2127.35 219.062 2124.8 219.062C2120.99 219.062 2120.79 218.286 2123.71 214.769C2125.67 212.407 2127.76 210.475 2128.36 210.475C2128.95 210.475 2129.44 212.407 2129.44 214.769ZM2152.7 219.838C2147.94 224.603 2145.24 219.869 2149.68 214.525C2152.36 211.291 2153.91 210.904 2154.7 213.274C2155.33 215.158 2154.43 218.112 2152.7 219.838ZM2178.46 219.838C2173.7 224.603 2171 219.869 2175.43 214.525C2178.12 211.291 2179.67 210.904 2180.46 213.274C2181.08 215.158 2180.19 218.112 2178.46 219.838ZM2567.33 216.537C2567.33 218.112 2566.05 218.604 2564.47 217.631C2562.9 216.658 2561.61 214.574 2561.61 213C2561.61 211.425 2562.9 210.933 2564.47 211.906C2566.05 212.879 2567.33 214.963 2567.33 216.537ZM2215.82 219.683C2213.77 221.735 2212.44 221.904 2212.44 220.112C2212.44 216.291 2215.82 212.905 2217.73 214.817C2218.55 215.63 2217.69 217.82 2215.82 219.683ZM2117.99 296.506V316.702L2111.63 312.248C2108.13 309.798 2099.44 307.797 2092.31 307.803C2068.02 307.823 2049.33 326.284 2049.31 350.293C2049.28 382.96 2076.58 402.884 2106.99 392.385C2114.43 389.815 2119.8 389.211 2120.37 390.877C2120.9 392.405 2125.09 393.659 2129.68 393.659H2138.02V334.983V276.307H2128.01H2117.99V296.506ZM2964.31 334.267L2964.88 392.228L2975.04 393.115L2985.2 394.005V366.957C2985.2 336.342 2988.57 329.127 3004.33 326.084C3011.68 324.664 3014.86 325.746 3020.78 331.671C3027.64 338.529 3028.13 340.822 3028.13 366.339V393.659H3038.15H3048.16L3048.15 362.89C3048.14 329.696 3044.15 317.698 3030.73 310.516C3024.36 307.107 2999.68 308.023 2990.21 312.016C2985.73 313.905 2985.2 312.125 2985.2 295.218V276.307H2974.46H2963.73L2964.31 334.267ZM1802.42 283.096C1788.3 288.351 1783.06 292.942 1778.35 304.214C1775.05 312.119 1775.08 314.987 1778.56 323.311C1783.65 335.498 1791.34 340.633 1812.9 346.243C1841.64 353.722 1850.07 362.787 1836.87 372.029C1828.27 378.054 1807.22 377.556 1792.76 370.984L1780.92 365.612L1777.65 372.799C1775.25 378.074 1775.22 381.008 1777.55 383.816C1782.73 390.064 1800.55 394.658 1819.06 394.518C1847.61 394.303 1863.27 382.519 1863.27 361.255C1863.27 345.599 1851.98 335.724 1826.87 329.421C1798.81 322.377 1790.43 313.024 1803.8 303.661C1811.89 297.991 1832.45 297.92 1843.29 303.527C1851.45 307.746 1851.75 307.643 1856.15 299.139L1860.65 290.429L1850.19 286.056C1834.98 279.701 1814.89 278.456 1802.42 283.096ZM196.111 289.098C201.165 293.24 203.008 296.179 200.593 296.239C192.994 296.431 171.714 308.298 168.626 314.066C166.162 318.671 166.812 321.104 171.969 326.594C184.141 339.551 201.033 343.57 243.335 343.57C280.542 343.57 282.608 343.252 299.145 334.983C319.526 324.79 322.193 317.869 310.072 306.629C304.5 301.46 298.896 299.205 291.638 299.205C283.292 299.205 280.879 297.945 279.557 292.891C278.65 289.416 278.344 286.139 278.876 285.606C279.408 285.071 285.942 286.17 293.395 288.048C306.956 291.462 332.059 311.733 332.059 319.269C332.059 325.847 314.185 339.262 299.683 343.57C291.618 345.965 273.707 349.431 259.883 351.272C232.507 354.915 198.065 351.959 169.671 343.527C153.666 338.775 134.576 323.228 134.576 314.947C134.576 307.059 153.546 291.125 168.368 286.562C186.322 281.038 186.274 281.035 196.111 289.098ZM2484.33 337.845V393.659H2520.2C2544.73 393.659 2559.15 392.374 2565.81 389.592C2584.79 381.66 2589.64 356.378 2574.86 342.485L2568.16 336.194L2573.82 324.753C2578.95 314.389 2579.11 312.311 2575.48 302.679C2569.2 285.955 2558.29 282.04 2517.96 282.037L2484.33 282.031V337.845ZM1885.34 289.527C1884.22 290.652 1883.3 295.132 1883.3 299.482C1883.3 305.487 1881.76 307.614 1876.91 308.307C1872.26 308.974 1870.36 311.361 1869.93 317.094C1869.43 323.691 1870.46 324.965 1876.32 324.965C1883.17 324.965 1883.3 325.403 1883.3 349.437C1883.3 379.502 1887.53 389.325 1902.24 393.387C1912.99 396.355 1928.07 394.775 1930.77 390.402C1931.62 389.016 1931.51 385.304 1930.51 382.155C1929.21 378.051 1926.49 376.594 1920.94 377.015C1907.72 378.022 1906.2 375.14 1906.2 349.125V324.965H1917.02C1927.01 324.965 1927.83 324.352 1927.52 317.094C1927.23 310.196 1925.92 309.114 1916.86 308.344C1907.56 307.554 1906.45 306.558 1905.65 298.326C1904.89 290.478 1903.54 289.067 1896.08 288.337C1891.3 287.867 1886.47 288.405 1885.34 289.527ZM2375.58 297.593C2375.58 306.564 2374.71 307.791 2368.42 307.791C2362.42 307.791 2361.27 309.14 2361.27 316.178C2361.27 322.698 2362.7 324.77 2367.71 325.48C2373.76 326.342 2374.23 328.056 2375.58 354.017C2377.18 385.018 2380.84 392.102 2396.41 394.386C2406.17 395.82 2424.23 391.899 2424.23 388.347C2424.23 382.344 2416.07 375.707 2410.48 377.167C2398.47 380.309 2395.27 374.064 2396.19 349.237L2397.04 326.396L2407.95 325.497C2417.91 324.676 2418.78 323.937 2417.96 316.911C2417.2 310.31 2415.58 309.1 2406.51 308.344C2396.94 307.548 2395.87 306.604 2395.06 298.326C2394.29 290.329 2393.02 289.075 2384.88 288.291C2375.96 287.429 2375.58 287.81 2375.58 297.593ZM2549.52 303.661C2556.97 308.876 2557.74 316.979 2551.39 323.331C2548.16 326.553 2541.27 327.827 2527.06 327.827H2507.23V313.516V299.205H2525.2C2536.83 299.205 2545.41 300.776 2549.52 303.661ZM1949.13 339.419C1949.13 361.086 1950.4 373.512 1953.18 378.875C1960.44 392.929 1979.89 398.719 1998.38 392.334C2005.75 389.789 2011.04 389.208 2011.62 390.877C2012.14 392.405 2016.97 393.659 2022.35 393.659H2032.13V350.725V307.791H2022.11H2012.09L2012.08 328.543C2012.06 353.602 2008 369.688 2000.71 373.589C1992.13 378.183 1981.1 376.975 1974.89 370.761C1969.93 365.801 1969.16 361.221 1969.16 336.414V307.791H1959.15H1949.13V339.419ZM2177.74 313.774C2164.81 321.479 2158.06 335.206 2158.06 353.796C2158.06 366.399 2159.35 369.502 2168.79 379.608C2184.69 396.621 2208.1 400.162 2230.33 388.91C2239.45 384.291 2239.78 382.877 2233.72 374.227C2229.59 368.339 2228.75 368.176 2223.07 372.161C2210.08 381.254 2183.11 375.235 2180.36 362.629C2179.7 359.578 2186.2 358.88 2212.1 359.215L2244.68 359.635L2243.26 344.889C2242.1 332.77 2240.01 328.311 2231.58 319.876C2222.56 310.854 2219.3 309.486 2204.71 308.599C2191.58 307.803 2185.94 308.882 2177.74 313.774ZM2263.14 309.938C2262.51 311.117 2262.12 330.117 2262.26 352.156L2262.52 392.228L2273.26 393.115L2283.99 394.005V366.957C2283.99 345.404 2285.01 338.684 2289 333.878C2296.64 324.673 2309.7 323.282 2319.1 330.672C2326.68 336.643 2326.92 337.696 2326.92 365.245V393.659H2337.18H2347.43L2346.48 359.071L2345.52 324.481L2336.18 316.138C2328.36 309.16 2324.36 307.791 2311.77 307.791C2303.08 307.791 2294.14 309.589 2290.64 312.045C2285.27 315.806 2284.38 315.806 2282.94 312.045C2281.27 307.686 2265.26 305.983 2263.14 309.938ZM2601.68 350.725V393.659H2613.13H2624.58V367.014C2624.58 336.743 2627.04 331.21 2641.89 328.199C2650.41 326.47 2651.89 324.931 2652.66 316.994C2653.49 308.561 2652.87 307.791 2645.34 307.791C2640.82 307.791 2634.62 309.683 2631.56 311.993C2624.41 317.403 2621.71 317.426 2621.71 312.085C2621.71 309.085 2618.69 307.791 2611.7 307.791H2601.68V350.725ZM2673.95 312.059C2663.43 316.63 2663.5 316.461 2667.84 325.978C2670.89 332.682 2671.44 332.81 2680.62 328.975C2694.16 323.322 2706.58 323.972 2713.3 330.689C2716.45 333.838 2719.02 337.55 2719.02 338.941C2719.02 340.329 2709.18 342.387 2697.15 343.515C2671.33 345.937 2661.78 352.697 2661.78 368.563C2661.78 389.365 2682.66 400.691 2706.53 392.835C2713.4 390.57 2719.02 389.829 2719.02 391.189C2719.02 392.548 2723.53 393.659 2729.04 393.659H2739.06V363.791C2739.06 328.872 2736.8 321.267 2724.1 313.527C2712.89 306.689 2687.98 305.96 2673.95 312.059ZM2764.73 309.223C2764.68 310.01 2764.6 329.006 2764.54 351.441L2764.44 392.228L2774.65 393.115L2784.85 394.005V366.957C2784.85 336.342 2788.23 329.127 2803.98 326.084C2811.33 324.664 2814.51 325.746 2820.44 331.671C2827.31 338.538 2827.78 340.81 2827.78 366.51V394.005L2838.52 393.115L2849.25 392.228L2850.17 375.054C2851.83 343.89 2848.4 327.836 2837.81 317.245C2829.7 309.14 2826.38 307.794 2814.47 307.809C2806.84 307.82 2797.14 309.626 2792.92 311.827C2786.35 315.259 2785.04 315.256 2783.71 311.81C2782.32 308.172 2764.94 305.802 2764.73 309.223ZM2887.86 314.232C2872.67 324.567 2866.74 334.631 2866.8 349.998C2866.85 365.663 2873.46 380.126 2883.6 386.767C2901.53 398.516 2928.72 397.099 2942 383.721L2949.42 376.245L2942.39 370.898C2935.52 365.672 2935.2 365.675 2928.41 371.018C2912.7 383.381 2887.89 372.87 2887.89 353.854C2887.89 329.917 2908.76 317.225 2925.92 330.727C2932.17 335.638 2934.35 335.985 2940.73 333.079C2950.34 328.697 2949.07 322.589 2936.81 314.332C2923.49 305.35 2900.97 305.304 2887.86 314.232ZM2112.98 333.781C2115.86 337.31 2117.99 344.689 2117.99 351.172C2117.99 377.281 2084.98 387.001 2073.27 364.341C2063.4 345.255 2077.85 322.835 2097.96 326.05C2103.47 326.931 2110.23 330.412 2112.98 333.781ZM2217.96 331.909C2221.55 335.727 2223.63 340.235 2222.59 341.927C2220.19 345.799 2181.92 346.008 2179.54 342.161C2178.57 340.601 2181.02 336.093 2184.97 332.143C2194.56 322.546 2209.07 322.44 2217.96 331.909ZM2557.16 350.593C2559.61 352.626 2561.61 357.277 2561.61 360.932C2561.61 371.777 2551.45 376.485 2528.06 376.485H2507.23V360.377V344.265L2529.97 345.582C2542.47 346.306 2554.71 348.561 2557.16 350.593ZM2718.48 362.95C2719.93 370.386 2708.68 379.348 2697.91 379.348C2686.71 379.348 2680.56 373.503 2683.16 365.325C2684.56 360.912 2688.03 359.378 2698.42 358.573C2716.03 357.214 2717.43 357.52 2718.48 362.95ZM249.563 373.623C250.627 380.707 251.592 396.487 251.709 408.686L251.921 430.868H237.207H222.493L224.17 397.932C225.095 379.817 226.686 363.642 227.705 361.991C228.727 360.339 233.627 359.383 238.595 359.867C246.921 360.674 247.779 361.751 249.563 373.623ZM1933.98 441.241C1932.87 442.357 1931.96 445.632 1931.96 448.52C1931.96 452.467 1934.13 453.766 1940.74 453.766C1948.21 453.766 1949.39 452.804 1948.61 447.326C1947.71 440.969 1938.21 437.016 1933.98 441.241ZM2114.3 441.241C2110.67 444.862 2111.94 512.405 2115.7 516.163C2119.22 519.681 2138.57 520.966 2141.64 517.886C2144.82 514.709 2140.31 508.149 2134.95 508.149C2130.1 508.149 2129.55 505.118 2128.81 474.517C2128.06 443.15 2127.62 440.829 2122.17 440.05C2118.95 439.589 2115.41 440.127 2114.3 441.241ZM2346 441.364C2344.95 442.411 2344.09 445.632 2344.09 448.52C2344.09 452.209 2346.22 453.766 2351.25 453.766C2356.97 453.766 2358.4 452.335 2358.4 446.61C2358.4 441.579 2356.85 439.455 2353.16 439.455C2350.27 439.455 2347.05 440.313 2346 441.364ZM2624.58 446.41C2624.58 452.401 2625.94 453.766 2631.93 453.766C2637.92 453.766 2639.12 452.57 2638.37 447.326C2637.78 443.187 2635.15 440.56 2631.02 439.97C2625.77 439.226 2624.58 440.422 2624.58 446.41ZM2925.09 446.61C2925.09 452.335 2926.52 453.766 2932.25 453.766C2937.97 453.766 2939.4 452.335 2939.4 446.61C2939.4 440.886 2937.97 439.455 2932.25 439.455C2926.52 439.455 2925.09 440.886 2925.09 446.61ZM1685.82 480.777V519.598H1694.4H1702.99L1703.09 494.553L1703.19 469.508L1713.37 487.397C1720.1 499.233 1725.34 505.286 1728.84 505.286C1732.35 505.286 1737.56 499.247 1744.28 487.397L1754.42 469.508L1754.46 494.553L1754.51 519.598H1763.09H1771.68V480.957V442.317H1763.14C1755.52 442.317 1753.31 444.604 1742.39 463.752C1735.68 475.545 1729.54 485.179 1728.75 485.165C1727.96 485.153 1722.15 475.828 1715.84 464.445C1705.65 446.055 1703.33 443.648 1695.09 442.852L1685.82 441.954V480.777ZM2180 444.226C2178.95 445.274 2178.12 453.969 2178.16 463.546C2178.31 501.46 2187.46 516.549 2211.71 518.882C2228.8 520.522 2241.89 514.646 2248.17 502.519C2251.11 496.828 2252.51 485.774 2252.51 468.22C2252.51 442.784 2252.38 442.317 2245.64 442.317C2238.96 442.317 2238.74 443.055 2237.76 468.326C2236.83 492.698 2236.26 494.771 2228.73 501.242C2218.53 510.015 2211.15 509.983 2202.29 501.122C2195.87 494.699 2195.27 491.88 2195.27 468.206C2195.27 442.992 2195.09 442.317 2188.59 442.317C2184.91 442.317 2181.05 443.176 2180 444.226ZM2822.06 468.87C2822.06 502.267 2818.23 509.54 2801.83 507.342C2793.66 506.245 2790.53 506.995 2789.24 510.364C2786.81 516.698 2792.72 519.503 2808.59 519.555C2819.39 519.589 2823.82 518.095 2829.34 512.571C2835.95 505.962 2836.37 503.681 2836.37 473.931V442.317H2829.21C2822.1 442.317 2822.06 442.454 2822.06 468.87ZM2658.92 453.766C2658.92 459.49 2657.49 462.353 2654.63 462.353C2652.24 462.353 2650.33 464.897 2650.33 468.077C2650.33 471.257 2652.24 473.802 2654.63 473.802C2658.02 473.802 2658.92 477.872 2658.92 493.265C2658.92 515.247 2661.58 519.598 2675 519.598C2688.41 519.598 2692.85 517.199 2691.19 510.853C2690.11 506.703 2688.09 505.756 2683.05 507.024C2677.63 508.383 2676 507.35 2674.58 501.669C2673.6 497.796 2673.23 490.265 2673.74 484.93C2674.46 477.4 2676.1 475.03 2681.1 474.317C2690.53 472.977 2689.9 462.353 2680.39 462.353C2674.34 462.353 2673.23 461.016 2673.23 453.766C2673.23 446.516 2672.12 445.179 2666.08 445.179C2660.03 445.179 2658.92 446.516 2658.92 453.766ZM1795.29 465.845C1782.74 471.898 1789.24 478.227 1803.06 473.41C1813.66 469.712 1826.06 473.744 1826.06 480.897C1826.06 484.186 1822.72 485.251 1812.39 485.251C1804.64 485.251 1795.95 487.183 1792.35 489.707C1784.5 495.208 1783.91 508.243 1791.22 514.861C1797.83 520.84 1814.23 520.977 1822.58 515.127C1828.37 511.074 1829.12 511.074 1830.68 515.127C1831.62 517.585 1835.46 519.598 1839.2 519.598C1845.81 519.598 1845.96 519.091 1844.38 501.709C1842.27 478.456 1838.74 469.557 1830.02 465.587C1821.23 461.58 1803.87 461.709 1795.29 465.845ZM1860.4 490.775V519.598H1867.56C1874.45 519.598 1874.71 518.925 1874.71 501.059C1874.71 484.252 1875.41 482.065 1882.16 477.643C1894.43 469.6 1898.89 475.012 1899.88 499.147L1900.72 519.598H1909.48H1918.23L1917.22 495.037C1916.39 474.752 1915.25 469.772 1910.66 466.414C1903.45 461.145 1888.76 461.216 1881.7 466.555C1874.85 471.735 1871.63 472.044 1872.57 467.43C1872.96 465.498 1870.38 463.478 1866.84 462.937C1860.53 461.972 1860.4 462.504 1860.4 490.775ZM1933.17 466.171C1932.37 468.269 1932.09 480.829 1932.55 494.078C1933.38 517.992 1933.44 518.172 1941.26 519.071L1949.13 519.978V491.164V462.353H1941.88C1937.9 462.353 1933.98 464.07 1933.17 466.171ZM1966.3 502.424V542.496H1973.46C1980.23 542.496 1980.61 541.648 1980.61 526.59C1980.61 510.728 1980.63 510.699 1986.97 515.141C1997.35 522.414 2011.33 520.803 2020.9 511.231C2039.43 492.695 2025.39 462.353 1998.28 462.353C1993.67 462.353 1988.3 464.285 1986.33 466.646C1984.37 469.007 1981.64 470.939 1980.26 470.939C1978.88 470.939 1977.75 469.007 1977.75 466.646C1977.75 464.262 1975.2 462.353 1972.02 462.353C1966.57 462.353 1966.3 464.262 1966.3 502.424ZM2050.02 465.304C2046.48 466.729 2043.58 470.018 2043.58 472.611C2043.58 476.2 2045.12 476.844 2050.02 475.299C2065.03 470.559 2071.38 470.53 2076.03 475.181C2083.75 482.904 2081.61 485.251 2066.86 485.251C2042.99 485.251 2030.42 500.713 2043.58 513.873C2049.95 520.247 2066.05 521.555 2075.55 516.469C2079.78 514.208 2082.26 514.208 2084.52 516.469C2086.24 518.189 2089.95 519.598 2092.77 519.598C2097.38 519.598 2097.72 517.437 2096.2 497.415C2094.79 478.728 2093.42 474.22 2087.49 468.793C2079.99 461.915 2062.49 460.289 2050.02 465.304ZM2269.68 490.975V519.598H2278.27H2286.85V501.059C2286.85 484.252 2287.55 482.065 2294.3 477.643C2306.57 469.6 2311.03 475.012 2312.02 499.147C2312.83 518.727 2313.16 519.598 2319.89 519.598C2326.8 519.598 2326.92 519.168 2326.92 495.712C2326.92 476.206 2325.96 470.957 2321.69 467.09C2315.21 461.222 2301.24 460.956 2293.84 466.555C2286.69 471.964 2283.99 471.987 2283.99 466.646C2283.99 463.976 2281.29 462.353 2276.83 462.353H2269.68V490.975ZM2344.09 490.975V519.598H2351.25H2358.4V490.975V462.353H2351.25H2344.09V490.975ZM2375.9 477.38C2379.19 485.643 2384.17 498.202 2386.97 505.286C2391.55 516.836 2393.03 518.167 2401.31 518.167C2410.31 518.167 2410.83 517.462 2421.4 490.975C2431.76 465.023 2431.99 463.741 2426.48 462.825C2418.75 461.543 2417.4 463.458 2410.04 485.986C2406.56 496.625 2402.85 504.794 2401.8 504.142C2400.74 503.489 2396.71 493.82 2392.84 482.655C2386.4 464.07 2385.13 462.353 2377.87 462.353H2369.94L2375.9 477.38ZM2451.08 467.82C2433.74 478.393 2433.34 503.034 2450.32 514.929C2460.21 521.853 2481.74 521.034 2491.49 513.364C2499.37 507.167 2499.38 507.115 2493.15 504.811C2488.93 503.251 2484.61 503.987 2479.91 507.07C2471.43 512.622 2459.99 510.413 2455.7 502.39C2452.77 496.917 2453.58 496.7 2477.08 496.7C2501.4 496.7 2501.51 496.665 2501.51 489.355C2501.51 466.895 2472.74 454.61 2451.08 467.82ZM2515.82 490.975C2515.82 519.455 2515.85 519.598 2522.84 519.598C2529.52 519.598 2529.91 518.653 2530.71 500.277C2531.55 481.209 2531.68 480.92 2540.86 478.218C2547.86 476.16 2550.16 473.85 2550.16 468.916C2550.16 461.385 2545.15 460.478 2537.11 466.555C2529.96 471.964 2527.27 471.987 2527.27 466.646C2527.27 464.262 2524.72 462.353 2521.54 462.353C2516.2 462.353 2515.82 464.262 2515.82 490.975ZM2566.12 469.033C2562.07 473.089 2558.75 478.364 2558.75 480.76C2558.75 486.261 2569.19 493.208 2581.02 495.572C2592.62 497.893 2598.77 504.557 2592.91 508.449C2590.65 509.949 2584.94 510.453 2580.21 509.571C2564.54 506.646 2560.77 506.689 2559.68 509.803C2558.07 514.411 2571.7 519.598 2585.44 519.598C2616.79 519.598 2619.14 492.186 2588.29 486.396C2576.07 484.106 2571.47 478.679 2577.51 473.676C2581.2 470.61 2583.87 470.593 2592.13 473.584C2599.49 476.243 2603.11 476.383 2605.4 474.091C2610.55 468.939 2603.55 464.554 2587.75 463.037C2575.26 461.835 2572.57 462.582 2566.12 469.033ZM2624.58 490.975V519.598H2631.73H2638.89V490.975V462.353H2631.73H2624.58V490.975ZM2709.13 491.264C2722.52 521.87 2722.75 531.047 2710.14 531.047C2705.74 531.047 2704.54 532.618 2705.23 537.487C2705.97 542.667 2707.79 543.806 2714.55 543.314C2719.17 542.979 2725.17 540.403 2727.88 537.59C2731.74 533.591 2759.09 468.693 2759.09 463.541C2759.09 462.888 2755.98 462.353 2752.17 462.353C2746.16 462.353 2744.42 464.886 2738.94 481.673C2735.47 492.3 2731.69 502.021 2730.55 503.277C2729.41 504.537 2724.93 495.841 2720.6 483.957C2713.32 463.993 2712.1 462.353 2704.61 462.353H2696.49L2709.13 491.264ZM2859.98 465.845C2847.43 471.898 2853.93 478.227 2867.75 473.41C2878.35 469.712 2890.75 473.744 2890.75 480.897C2890.75 484.186 2887.41 485.251 2877.08 485.251C2860.12 485.251 2850.68 491.29 2850.68 502.144C2850.68 517.511 2868.53 524.383 2886.81 516.054C2892.99 513.235 2894.83 513.235 2895.77 516.054C2896.42 518.003 2900.04 519.598 2903.82 519.598C2910.52 519.598 2910.65 519.137 2909.07 501.709C2906.96 478.456 2903.42 469.557 2894.71 465.587C2885.92 461.58 2868.56 461.709 2859.98 465.845ZM2925.09 490.975V519.598H2932.25H2939.4V490.975V462.353H2932.25H2925.09V490.975ZM2956.58 502.424V542.496H2963.73C2970.43 542.496 2970.89 541.563 2970.89 527.878C2970.89 515.018 2971.49 513.527 2975.9 515.485C2978.65 516.71 2986.32 518.258 2992.95 518.931C3009.46 520.608 3019.54 510.312 3019.54 491.768C3019.54 468.444 2995.32 454.15 2977.25 466.809C2971.49 470.842 2970.89 470.842 2970.89 466.809C2970.89 463.964 2968.3 462.353 2963.73 462.353H2956.58V502.424ZM3033.85 486.238C3033.85 505.744 3034.81 510.994 3039.09 514.861C3045.59 520.743 3062.05 521.006 3070.11 515.356C3075.46 511.612 3076.58 511.612 3079.69 515.356C3081.63 517.689 3085.8 519.598 3088.96 519.598C3094.01 519.598 3094.49 518.292 3092.93 508.864C3091.95 502.962 3091.14 490.082 3091.12 480.242C3091.09 463.077 3090.8 462.353 3083.94 462.353C3077.13 462.353 3076.78 463.16 3076.78 478.888C3076.78 497.71 3071.31 508.149 3061.45 508.149C3050.95 508.149 3048.16 502.625 3048.16 481.816C3048.16 462.962 3047.94 462.353 3041.01 462.353C3033.95 462.353 3033.85 462.668 3033.85 486.238ZM3109.48 466.171C3108.68 468.269 3108.4 480.829 3108.86 494.078C3109.69 517.992 3109.75 518.172 3117.57 519.071C3125.43 519.978 3125.44 519.967 3125.44 501.534C3125.44 481.882 3127.69 477.889 3139.75 476.223C3144.61 475.551 3147.2 473.163 3147.82 468.793C3149.01 460.381 3140.48 460.134 3130.12 468.286L3122.58 474.217V468.286C3122.58 461.511 3111.93 459.791 3109.48 466.171ZM2480.6 478.003L2488.63 485.07L2470.83 485.159C2455.75 485.236 2453.3 484.558 2454.77 480.717C2456.29 476.756 2464.69 471.658 2470.58 471.12C2471.67 471.022 2476.18 474.119 2480.6 478.003ZM2006.86 478.539C2017.44 488.113 2010.83 508.149 1997.09 508.149C1982.87 508.149 1975.51 489.908 1985.35 479.037C1991.24 472.528 1999.99 472.325 2006.86 478.539ZM2999.51 479.526C3006.38 486.404 3006.77 493.225 3000.78 501.786C2995.21 509.729 2984.21 510.021 2976.61 502.424C2969.01 494.828 2969.31 483.82 2977.25 478.258C2985.81 472.262 2992.63 472.648 2999.51 479.526ZM1825.54 500.22C1824.26 509.162 1810.5 513.853 1804.16 507.508C1796.61 499.965 1801.35 493.837 1814.72 493.837C1825.23 493.837 1826.36 494.507 1825.54 500.22ZM2080.78 497.968C2080.78 502.922 2069.96 511.011 2063.32 511.011C2055.68 511.011 2050.72 503.317 2055.02 498.131C2059.78 492.401 2080.78 492.269 2080.78 497.968ZM2890.23 500.22C2888.95 509.162 2875.19 513.853 2868.85 507.508C2861.3 499.965 2866.04 493.837 2879.41 493.837C2889.92 493.837 2891.05 494.507 2890.23 500.22ZM306.798 506.185C298.472 515.05 298.953 523.631 308.181 530.889C320.213 540.355 335.636 533.047 335.636 517.88C335.636 509.294 326.229 499.562 317.932 499.562C315.23 499.562 310.221 502.544 306.798 506.185ZM310.593 516.735C311.566 518.31 310.997 519.598 309.331 519.598C307.665 519.598 306.3 518.31 306.3 516.735C306.3 515.161 306.867 513.873 307.562 513.873C308.258 513.873 309.62 515.161 310.593 516.735ZM329.197 519.598C329.197 521.172 327.909 522.46 326.335 522.46C324.761 522.46 323.473 521.172 323.473 519.598C323.473 518.023 324.761 516.735 326.335 516.735C327.909 516.735 329.197 518.023 329.197 519.598Z" fill="white"/>
</svg>
