<svg width="1217" height="588" viewBox="0 0 1217 588" fill="none" xmlns="http://www.w3.org/2000/svg">
<g clip-path="url(#clip0_147_73)">
<rect width="1440" height="1024" transform="translate(-10 -145)" fill="#070015"/>
<path d="M785.5 427C1237.1 427 1355 45.6667 1357.5 -145H1542V876H40V661C100.333 583 333.9 427 785.5 427Z" fill="#19004E"/>
<path d="M-83.1784 -145L-573 171L-83.1784 487L408 171L-83.1784 -145Z" fill="#19004E"/>
<path d="M109.237 299.789L-91.0376 347.126L97.3122 430.042L298.125 382.755L109.237 299.789Z" fill="#4E21CF"/>
<path d="M1089.5 332C1225.9 308.8 1353.33 182.333 1400 122C1357.17 206 1247.8 385.1 1153 429.5C1058.2 473.9 740.167 478.667 593 475.5C701.667 437.333 953.1 355.2 1089.5 332Z" fill="#4E21CF"/>
</g>
<defs>
<clipPath id="clip0_147_73">
<rect width="1440" height="1024" fill="white" transform="translate(-10 -145)"/>
</clipPath>
</defs>
</svg>
